<?xml version="1.0" encoding="UTF-8" standalone="no"?>
<svg width="28px" height="39px" viewBox="0 0 28 39" version="1.1" xmlns="http://www.w3.org/2000/svg" xmlns:xlink="http://www.w3.org/1999/xlink">
    <!-- Generator: Sketch 42 (36781) - http://www.bohemiancoding.com/sketch -->
    <title>Path 2 Copy</title>
    <desc>Created with Sketch.</desc>
    <defs></defs>
    <g id="2017-Olivia" stroke="none" stroke-width="1" fill="none" fill-rule="evenodd">
        <g id="Landscape-iPhone" transform="translate(-209.000000, -44.000000)">
            <rect id="Rectangle-2" x="199" y="39" width="48" height="48"></rect>
            <path d="M225.10185,44 C225.10185,44 224.458995,47.9199122 223.566168,47.9199122 C222.673341,47.9199122 222.398598,46.8702029 222.398598,46.8702029 C222.398598,46.8702029 221.916063,50.3082311 220.6288,50.3082311 C219.341536,50.3082311 218.774313,48.9857355 218.774313,48.9857355 C218.774313,48.9857355 218.391935,51.0257745 218.774313,53.0203638 C219.15669,55.0149531 219.746828,55.5491043 219.150705,56.3513492 C218.667823,57.0011977 217.86269,56.5187792 216.99134,55.4221109 C216.119991,54.3254427 216.133165,52.7049906 216.133165,52.7049906 C216.133165,52.7049906 215.498877,53.4285024 214.601623,53.1059212 C213.70437,52.7833401 212.940226,51.5570629 212.940226,51.5570629 C212.940226,51.5570629 213.053134,52.3539527 212.249545,51.7918663 C211.445956,51.2297798 210.751126,50.0258532 210.751126,50.0258532 C210.751126,50.0258532 211.513319,52.943726 211.445947,53.5279535 C211.378575,54.112181 210.311876,53.834886 210.311876,53.834886 C210.311876,53.834886 211.550646,56.1960963 211.479446,57.0216132 C211.408245,57.84713 209.814037,58.2865514 209.814037,58.2865514 C209.814037,58.2865514 210.47937,59.7570783 211.479446,60.7957291 C212.479521,61.8343799 213.289533,61.8919972 213.115625,62.656511 C212.721918,64.3872812 209,64.522945 209,64.522945 C209,64.522945 212.751171,66.3339568 213.115625,66.7219222 C213.480079,67.1098876 212.940226,67.572529 212.940226,67.572529 C212.940226,67.572529 216.735544,67.7009771 217.015806,68.1590442 C217.296068,68.6171113 216.133165,69.6415284 216.133165,69.6415284 C216.133165,69.6415284 217.840665,70.1157111 219.132639,69.6135208 C220.424612,69.1113305 221.551714,67.8175817 221.551714,67.8175817 C221.551714,67.8175817 222.11668,71.7850685 222.11668,72.8374635 C222.11668,73.8898584 222.076741,74.3229791 221.916063,75.5929504 C221.755384,76.8629216 221.856556,76.9541559 221.451218,78.0971363 C221.045879,79.2401167 221.322785,79.0244663 220.300209,80.149364 C219.277632,81.2742617 217.96808,81.9288054 217.96808,81.9288054 L218.95197,83 C218.95197,83 220.553286,82.0522418 221.28297,81.2121179 C222.012654,80.3719941 222.089349,79.8843252 222.412901,79.0152483 C222.736453,78.1461713 222.619363,78.5792854 222.810748,77.1084298 C223.002133,75.6375743 223.040805,75.2979537 223.049005,74.1265802 C223.057204,72.9552066 222.960508,72.881407 222.848011,71.7850685 C222.735514,70.68873 222.690978,70.3449896 222.584536,69.6000925 C222.478094,68.8551954 222.324825,68.1237469 222.324825,68.1237469 C222.324825,68.1237469 222.851619,69.1662537 223.685108,69.6848826 C224.518598,70.2035115 225.547123,70.1287838 225.547123,70.1287838 C225.547123,70.1287838 225.404155,69.2571496 225.547123,68.9649579 C225.69009,68.6727661 226.04509,68.4427015 226.518969,68.5619807 C226.992847,68.6812599 229.368262,70.5205064 229.368262,70.5205064 C229.368262,70.5205064 229.290407,69.2944788 229.669376,69.1297184 C230.048344,68.9649579 234.619316,69.6415284 234.619316,69.6415284 C234.619316,69.6415284 229.834612,67.3444249 230.238482,66.2514584 C230.415596,65.7721449 231.764809,65.7019304 233.193634,65.2784658 C233.776606,65.1056889 234.271981,64.7722596 234.944896,64.522945 C235.617811,64.2736303 237,63.8972858 237,63.8972858 C237,63.8972858 234.367886,62.5459475 234.367886,61.3547334 C234.367886,60.8764585 235.138282,60.6513026 235.327437,60.3785504 C235.516592,60.1057982 235.955384,59.5756047 235.955384,59.5756047 C235.955384,59.5756047 234.752174,59.5342473 234.944896,58.9103993 C235.018236,58.672996 235.555924,58.3072623 235.819001,57.6561962 C236.082078,57.0051301 236.447079,55.1654386 236.447079,55.1654386 C236.447079,55.1654386 234.944896,56.1468554 234.020099,56.1468554 C233.095302,56.1468554 233.429539,55.0756608 233.429539,55.0756608 C233.429539,55.0756608 232.142801,56.0488557 231.537789,55.8479799 C230.932778,55.647104 230.642351,54.1502592 230.642351,54.1502592 C230.642351,54.1502592 229.538973,56.9095173 228.817599,57.6561962 C228.096225,58.4028751 227.329118,58.5361527 226.89235,58.0318049 C226.455583,57.5274571 226.430659,57.0257659 226.992847,55.5491043 C227.555036,54.0724427 228.502935,54.024275 228.800285,53.0203638 C229.097635,52.0164526 229.097635,49.7872131 229.097635,49.7872131 C229.097635,49.7872131 227.884349,51.0206353 227.46936,50.578169 C227.054372,50.1357027 227.46936,48.0511259 227.46936,48.0511259 C227.46936,48.0511259 226.727867,48.7132105 226.518969,48.418294 C226.310071,48.1233774 225.10185,44 225.10185,44 Z" id="Path-2-Copy" fill="#58595B"></path>
        </g>
    </g>
</svg>