<?xml version="1.0" encoding="UTF-8"?>
<svg width="18px" height="26px" viewBox="0 0 18 26" version="1.1" xmlns="http://www.w3.org/2000/svg" xmlns:xlink="http://www.w3.org/1999/xlink">
    <!-- Generator: Sketch 43.2 (39069) - http://www.bohemiancoding.com/sketch -->
    <title>Alpha-Logo</title>
    <desc>Created with Sketch.</desc>
    <defs></defs>
    <g id="2018-Color" stroke="none" stroke-width="1" fill="none" fill-rule="evenodd">
        <g id="iPhone-7-Plus-Copy-2" transform="translate(-631.000000, -15.000000)">
            <g id="Group">
                <g id="Alpha-Logo" transform="translate(622.000000, 10.000000)">
                    <g>
                        <rect id="Rectangle-53" x="0" y="0" width="36" height="36"></rect>
                        <path d="M26.5903728,16.9740183 L26.4800217,25.177721 C26.4800217,25.177721 20.4015413,30.921225 19.0476993,30.2737026 C19.0476993,30.2737032 19.0476993,27.7147198 19.0476993,27.7147198 L20.6600762,25.1938857 C20.6600762,25.1938857 21.1760748,26.4056972 21.7138406,26.0183199 C22.2516065,25.6309427 26.5903728,16.9740183 26.5903728,16.9740183 Z" id="Path-27" fill-opacity="0.5" fill="#000000"></path>
                        <path d="M19.396493,6.02667685 L14.6162843,5.92729898 L9.58468581,14.2520484 C9.58468581,14.2520484 9.24517825,21.7339486 10.1592913,24.8957414 C11.0734044,28.0575342 15.9783122,29.3780064 15.9783122,29.3780064 L26.6539278,12.0444535 L26.6094643,5.98468353 L23.3752181,5.95086085 C23.3752181,5.95086085 13.8997562,22.163867 12.403512,21.1246372 C10.9072679,20.0854075 15.0940748,12.7686786 16.0347467,12.0108208 C16.9754186,11.2529631 17.7938554,12.6031832 17.7938554,12.6031832 L19.497391,9.95732819 L19.396493,6.02667685 Z" id="Path-28" fill-opacity="0.5" fill="#000000"></path>
                    </g>
                </g>
            </g>
        </g>
    </g>
</svg>